PathFileType	4	(X/Y/Z)	C:/Users/opensim2020/Desktop/walking_exp_matlab/subject01_walking05_straight_03.trc																																																																																																																															
DataRate	CameraRate	NumFrames	NumMarkers	Units	OrigDataRate	OrigDataStartFrame	OrigNumFrames																																																																																																																											
100	100	7	43	mm	100	2079	223																																																																																																																											
Frame#	Time	LFHD			RFHD			LBHD			RBHD			C7			T10			CLAV			STRN			RBAK			LSHO			LUPA			LELB			LFRM			LWRA			LWRB			LFIN			RSHO			RUPA			RELB			RFRM			RWRA			RWRB			RFIN			LASI			RASI			LPSI			RPSI			LTHI			LKNE			LTIB			LANK			LHEE			LTOE			RTHI			RKNE			RTIB			RANK			RHEE			RTOE			*39			*40			*41			*42		
		X1	Y1	Z1	X2	Y2	Z2	X3	Y3	Z3	X4	Y4	Z4	X5	Y5	Z5	X6	Y6	Z6	X7	Y7	Z7	X8	Y8	Z8	X9	Y9	Z9	X10	Y10	Z10	X11	Y11	Z11	X12	Y12	Z12	X13	Y13	Z13	X14	Y14	Z14	X15	Y15	Z15	X16	Y16	Z16	X17	Y17	Z17	X18	Y18	Z18	X19	Y19	Z19	X20	Y20	Z20	X21	Y21	Z21	X22	Y22	Z22	X23	Y23	Z23	X24	Y24	Z24	X25	Y25	Z25	X26	Y26	Z26	X27	Y27	Z27	X28	Y28	Z28	X29	Y29	Z29	X30	Y30	Z30	X31	Y31	Z31	X32	Y32	Z32	X33	Y33	Z33	X34	Y34	Z34	X35	Y35	Z35	X36	Y36	Z36	X37	Y37	Z37	X38	Y38	Z38	X39	Y39	Z39	X40	Y40	Z40	X41	Y41	Z41	X42	Y42	Z42	X43	Y43	Z43
																																																																																																																																		
1	0	-1056.10242	1660.0575	-1173.27002	-1033.59644	1668.63086	-1060.24243	-1169.28943	1607.39185	-1156.10022	-1149.0304	1613.55896	-1036.71912	-1204.62622	1426.59924	-1109.70544	-1252.34216	1136.42151	-1080.70898	-1063.95264	1352.20947	-1117.33374	-1029.40723	1194.7771	-1122.24451	-1260.38086	1237.47107	-1018.93506	-1140.87085	1379.46924	-1272.56335	-1169.66833	1203.44116	-1366.36426	-1156.7793	1054.31677	-1395.42993	-1073.23486	984.8075	-1444.68152	-943.67902	938.5116	-1464.3822	-989.28442	901.15833	-1472.47388	-921.04358	876.20532	-1511.25769	-1113.58313	1387.99438	-962.94971	-1191.56738	1203.95837	-848.96484	-1209.91052	1084.47168	-835.99139	-1213.47534	970.23041	-792.07269	-1169.59375	832.84814	-796.57733	-1210.76819	851.98663	-758.23511	-1201.25366	765.54297	-752.23706	-1101.4624	917.57391	-1196.79565	-1067.51917	935.44891	-981.89282	-1277.04089	939.03949	-1115.19836	-1253.27148	945.93567	-972.06897	-1187.72534	596.09576	-1247.7522	-1221.35889	463.96063	-1237.05017	-1310.33789	293.99121	-1237.6156	-1360.9126	76.53007	-1188.40491	-1392.72131	50.8479	-1126.45923	-1225.51282	26.5325	-1235.98499	-1047.21313	611.13617	-904.13086	-1001.6991	458.86325	-932.45526	-1026.00391	286.01108	-926.2688	-1003.62018	78.87624	-972.6225	-1036.75696	30.92297	-1028.90393	-862.7262	62.4704	-960.62555	-1050.80115	1700.89526	-1084.22888	1972.974	1023.96167	-3102.02295	2012.53516	1022.05829	-3140.64038	NaN	NaN	NaN
2	0.01	-1049.58264	1659.73145	-1172.57507	-1027.72437	1668.36072	-1059.4967	-1162.43152	1606.37231	-1155.96277	-1142.93958	1612.72095	-1036.51392	-1197.38562	1425.97327	-1109.79102	-1245.14514	1135.828	-1080.84741	-1056.47815	1351.83228	-1116.64978	-1022.16077	1194.28699	-1121.56714	-1253.43188	1236.85535	-1019.23456	-1132.63672	1378.94202	-1272.27271	-1160.63257	1203.15393	-1366.63306	-1147.24988	1054.11682	-1396.16077	-1062.33191	986.19312	-1445.37451	-931.96576	942.50885	-1464.32739	-976.69928	903.84503	-1472.74365	-907.82239	880.82965	-1511.68652	-1107.23547	1387.49963	-962.37512	-1186.77393	1203.9928	-849.14191	-1205.86108	1084.55054	-836.46814	-1210.88562	970.28802	-792.49445	-1167.91089	832.72961	-796.16101	-1209.45483	852.23389	-758.2832	-1200.85388	765.4704	-752.56036	-1094.28735	917.0943	-1196.78516	-1060.69641	934.74341	-981.80273	-1269.94946	938.49817	-1115.46094	-1246.50098	945.21466	-972.41968	-1182.73938	596.24908	-1247.55286	-1218.12439	464.39755	-1237.37219	-1308.4679	295.35852	-1238.00647	-1360.48865	77.64117	-1188.86218	-1392.43579	52.34759	-1127.07886	-1225.37854	26.50905	-1236.16504	-1042.68701	609.71509	-904.11798	-996.06097	458.51108	-932.69922	-1015.24353	285.42569	-925.99518	-985.48584	78.77386	-971.83136	-1018.21051	30.12581	-1027.71484	-844.10181	66.09138	-960.02087	-1045.15271	1700.29834	-1082.84363	1973.10132	1023.68915	-3101.88257	2012.45105	1021.97217	-3140.69141	NaN	NaN	NaN
3	0.02	-1043.07043	1659.40308	-1171.84399	-1021.63165	1668.07166	-1058.49768	-1155.71094	1605.47473	-1155.68396	-1136.70117	1611.91431	-1036.14075	-1190.12207	1425.35901	-1109.55676	-1237.7937	1135.19226	-1080.75928	-1048.85364	1351.38232	-1116.61987	-1014.61292	1193.74719	-1120.96692	-1246.33008	1236.13379	-1019.29785	-1124.54236	1378.37634	-1271.78467	-1151.7002	1202.87903	-1366.66333	-1137.82361	1053.9292	-1396.65259	-1051.50256	987.28821	-1445.42017	-920.41937	946.14618	-1464.21936	-964.45496	906.71796	-1472.91602	-895.03888	885.2019	-1511.53564	-1100.27307	1387.06946	-961.71857	-1181.76062	1203.85291	-849.19409	-1201.58765	1084.54883	-836.7998	-1207.90356	970.3457	-792.74988	-1165.48853	832.68689	-795.54382	-1207.44727	852.22467	-758.38574	-1200.45642	765.49792	-752.9256	-1086.98865	916.68304	-1196.7572	-1053.81787	934.0318	-981.53815	-1262.67603	937.98383	-1115.62207	-1239.68579	944.61957	-972.57263	-1177.65637	596.34796	-1247.36316	-1214.60303	464.70047	-1237.63306	-1305.96448	296.01071	-1238.02893	-1360.01257	79.09494	-1189.34778	-1392.29602	54.19463	-1127.55176	-1225.41614	26.58465	-1236.2782	-1038.05786	608.24139	-903.54718	-990.18018	458.15509	-933.07959	-1003.82019	284.82312	-925.48077	-968.26135	79.15522	-970.8233	-999.48315	29.07026	-1026.68079	-826.34497	69.67661	-959.50848	-1038.08777	1701.34351	-1080.48865	1973.17688	1023.24469	-3101.9397	2012.48755	1021.88324	-3140.61694	NaN	NaN	NaN
4	0.03	-1036.42896	1659.08276	-1170.83057	-1015.51617	1667.76221	-1057.42664	-1148.83691	1604.57544	-1155.17273	-1130.35596	1611.10742	-1035.59692	-1182.82434	1424.74963	-1109.06921	-1230.42151	1134.56689	-1080.48254	-1041.41064	1350.64404	-1115.08862	-1007.10767	1193.17493	-1119.76733	-1239.18469	1235.39355	-1019.13165	-1116.45789	1377.90442	-1271.04785	-1142.67175	1202.43762	-1366.21619	-1128.20483	1053.50281	-1396.60571	-1040.93823	988.27478	-1445.29834	-909.2439	949.4895	-1463.58594	-952.52545	909.39349	-1472.80701	-882.52264	889.23126	-1511.19299	-1093.70581	1386.55908	-960.90527	-1176.62415	1203.64319	-849.02429	-1197.06421	1084.34753	-837.02228	-1204.6106	970.27289	-792.95093	-1163.65088	832.26776	-795.74866	-1204.70972	852.0777	-758.64355	-1198.57849	765.03668	-753.28485	-1079.57361	916.18042	-1196.58545	-1046.57629	933.21912	-981.18744	-1255.30334	937.44531	-1115.68335	-1232.6239	943.94305	-972.70447	-1172.36084	596.40198	-1247.16016	-1210.76367	465.00766	-1237.8877	-1303.38525	296.95285	-1238.23364	-1359.40503	80.46933	-1189.85278	-1391.99219	55.9465	-1128.15137	-1225.32349	26.52695	-1236.49817	-1033.7179	607.13116	-903.38385	-984.0257	457.6962	-933.02301	-992.84631	284.40576	-924.77844	-952.19879	79.40778	-969.71637	-982.31824	28.45969	-1025.34424	-809.86646	72.97434	-959.10443	-1032.03418	1700.93164	-1079.34814	1973.12061	1023.69019	-3101.71216	2012.54663	1021.97607	-3140.54834	NaN	NaN	NaN
5	0.04	-1029.75232	1658.71741	-1169.77148	-1009.35901	1667.42212	-1056.39905	-1141.98938	1603.6759	-1154.51318	-1123.97412	1610.36938	-1034.84583	-1175.23816	1423.92053	-1108.31226	-1222.85962	1133.86841	-1080.05774	-1033.85486	1350.10815	-1113.901	-999.36804	1192.70081	-1118.67053	-1232.00977	1234.57117	-1018.80731	-1108.37146	1377.44214	-1270.06812	-1134.22168	1202.43384	-1365.76074	-1119.16455	1053.51379	-1396.55029	-1030.53625	989.23712	-1444.84216	-898.34546	952.60815	-1462.92688	-940.95941	911.90265	-1472.47266	-870.3653	892.99237	-1510.59644	-1086.42578	1385.79358	-959.86279	-1171.22388	1203.31213	-848.71429	-1192.20569	1084.09167	-837.06372	-1200.84009	970.13086	-793.02161	-1160.27917	832.00012	-795.18512	-1202.44592	851.93701	-758.58704	-1196.50208	764.64514	-753.74945	-1071.97473	915.66235	-1196.36169	-1039.37695	932.33313	-980.89301	-1247.80725	936.97284	-1115.58191	-1225.40979	943.30542	-972.63373	-1166.83118	596.41467	-1246.97754	-1206.6908	465.32611	-1238.14954	-1300.60657	298.01172	-1238.35986	-1358.80615	81.98209	-1190.37134	-1391.74939	58.17743	-1128.58765	-1224.75952	26.05238	-1236.74707	-1029.03613	606.09375	-903.38202	-977.86603	457.48987	-933.08997	-982.05237	284.0228	-924.04926	-937.21124	79.74357	-968.70715	-966.58252	27.75658	-1023.95093	-794.54993	76.17423	-958.83368	-1026.16614	1700.18604	-1078.88599	1973.05957	1023.28516	-3101.94751	2012.52698	1021.9624	-3140.58569	NaN	NaN	NaN
6	0.05	-1023.03485	1658.40063	-1168.5249	-1003.06299	1667.24146	-1055.09583	-1134.99902	1602.82007	-1153.57336	-1117.43298	1609.6709	-1033.84888	-1167.58496	1423.29126	-1107.32654	-1215.23425	1133.29749	-1079.45398	-1026.04138	1349.87915	-1112.96155	-991.59979	1192.23425	-1117.36572	-1224.64648	1233.8385	-1018.16327	-1100.22925	1377.04041	-1268.90332	-1125.42188	1202.51929	-1364.73718	-1109.94836	1053.29138	-1396.05835	-1020.47797	990.38745	-1444.35205	-887.89661	955.57343	-1462.23108	-929.68768	914.19989	-1471.72803	-858.62885	896.26477	-1509.54224	-1079.37354	1385.0271	-958.35858	-1165.55566	1202.91699	-848.24573	-1187.01965	1083.73633	-836.93591	-1196.67358	969.83173	-792.98987	-1157.05249	831.43268	-795.0719	-1198.64136	851.4328	-758.79309	-1193.68738	764.19641	-753.9101	-1064.17859	915.17365	-1196.08545	-1033.479	931.27557	-981.04962	-1240.23328	936.38287	-1115.42505	-1218.03003	942.703	-972.41516	-1161.04846	596.38031	-1246.76282	-1202.32019	465.60947	-1238.2876	-1297.61523	299.14075	-1238.41089	-1358.0835	83.64704	-1190.83813	-1391.29272	60.41786	-1129.15466	-1225.29138	26.69131	-1236.63513	-1022.67566	605.00006	-903.02283	-970.56213	456.90625	-933.01758	-971.71564	283.96451	-923.11554	-923.6651	80.0442	-967.37897	-952.67792	27.7099	-1022.19153	-780.58838	78.86215	-958.66077	-1019.77289	1700.27612	-1077.2627	1973.13367	1023.34271	-3101.85522	2012.53625	1022.12238	-3140.6062	NaN	NaN	NaN
7	0.06	-1016.31482	1658.08496	-1167.17151	-996.64569	1667.10498	-1053.56433	-1128.02368	1601.94421	-1152.40918	-1110.79553	1608.99109	-1032.67371	-1160.07031	1422.81531	-1106.12585	-1207.59143	1132.57568	-1078.80225	-1018.48572	1349.24731	-1111.78052	-983.60651	1191.84363	-1116.18408	-1217.12524	1233.06531	-1017.39532	-1092.0575	1376.6449	-1267.54102	-1117.67212	1201.94141	-1364.07153	-1101.17847	1052.93896	-1395.30688	-1010.47864	991.10907	-1443.14111	-877.4126	958.01196	-1460.74414	-918.83057	916.26733	-1470.79736	-847.27686	899.24133	-1508.32922	-1072.57007	1384.43237	-956.94574	-1159.71692	1202.42712	-847.59723	-1181.57446	1083.30444	-836.62177	-1192.45105	969.53369	-792.88	-1152.93481	830.85138	-794.68951	-1194.91638	850.90039	-758.74951	-1190.56262	763.54022	-754.078	-1056.2229	914.69745	-1195.66931	-1025.96545	930.37225	-980.52179	-1232.3916	935.90204	-1115.10352	-1210.53748	942.00824	-972.04541	-1155.07739	596.40875	-1246.55164	-1197.65356	465.96567	-1238.3822	-1294.49158	300.36191	-1238.41626	-1357.28394	85.59097	-1191.31104	-1390.86865	62.81818	-1129.70801	-1225.03101	26.41929	-1236.75183	-1016.13019	604.01404	-902.66138	-963.57635	456.51358	-932.87598	-962.11938	283.84055	-922.24255	-911.32208	80.28036	-965.93915	-939.78534	26.86158	-1020.23163	-768.15564	81.10636	-958.49371	-1013.34473	1700.13135	-1075.8623	1973.17554	1023.37701	-3101.76563	2012.61108	1021.9939	-3140.73608	NaN	NaN	NaN
